<?xml version="1.0" encoding="utf-8"?>
<!-- Generator: Adobe Illustrator 16.0.4, SVG Export Plug-In . SVG Version: 6.00 Build 0)  -->
<!DOCTYPE svg PUBLIC "-//W3C//DTD SVG 1.1//EN" "http://www.w3.org/Graphics/SVG/1.1/DTD/svg11.dtd">
<svg version="1.1" id="Layer_1" xmlns="http://www.w3.org/2000/svg" xmlns:xlink="http://www.w3.org/1999/xlink" x="0px" y="0px"
	 width="320px" height="35.989px" viewBox="0 0 320 35.989" enable-background="new 0 0 320 35.989" xml:space="preserve">
<path fill="#FFFFFF" d="M250.812,34.594h-27.09l11.893-15.135h-10.749V0h25.946v8.647h-2.163V2.161h-21.621v15.136h13.035
	l-11.892,15.136h22.641V34.594z M71.352,19.459h23.783V0H69.189v34.594h2.163V19.459z M71.352,2.161h21.621v15.136H71.352V2.161z
	 M193.514,15.134 M127.567,0v17.297h-21.621V0h-2.163v34.594h2.163V19.459h21.621v15.135h2.162V0H127.567z M285.406,0h-2.163v32.433
	h-21.622V17.297h-2.161v17.297h25.946V0z M320,0h-25.946v34.594H320V0z M296.217,2.161h21.622v30.271h-21.622V2.161z M169.729,4.323
	h-2.162v28.109H160v2.161h7.567h2.162h7.567v-2.161h-7.567V4.323z M181.621,0v8.647h-2.161V2.161h-21.621v6.486h-2.163V0H181.621z
	 M23.553,0L2.162,31.113V0H0v34.594h2.394L23.784,3.48v31.113h2.163V0H23.553z M60.541,8.647V0H34.594v19.459h10.749l-10.749,13.68
	v1.455h25.946v-2.161H37.899l11.892-15.136H36.757V2.161h21.622v6.486H60.541z M221.457,26.519l-5.919,9.471l-23.105-11.18v9.784
	h-2.162v-10.83l-6.487-3.139v-3.328h6.487V0h25.946v19.459h-23.784v2.949l22.301,10.79l4.892-7.825L221.457,26.519z M192.433,17.297
	h21.621V2.161h-21.621V17.297z M190.271,19.459h-3.933l3.933,1.902V19.459z"/>
</svg>
