<?xml version="1.0" encoding="utf-8"?>
<!-- Generator: Adobe Illustrator 16.0.4, SVG Export Plug-In . SVG Version: 6.00 Build 0)  -->
<!DOCTYPE svg PUBLIC "-//W3C//DTD SVG 1.1//EN" "http://www.w3.org/Graphics/SVG/1.1/DTD/svg11.dtd">
<svg version="1.1" id="Layer_1" xmlns="http://www.w3.org/2000/svg" xmlns:xlink="http://www.w3.org/1999/xlink" x="0px" y="0px"
	 width="65px" height="65px" viewBox="0 0 65 65" enable-background="new 0 0 65 65" xml:space="preserve">
<g>
	<rect x="17.604" y="39.271" fill="#FFFFFF" width="8.125" height="6.771"/>
	<path fill="#FFFFFF" d="M0,0v65h65V0H0z M29.792,50.104H17.604v6.771h-4.062V35.208h16.25V50.104z M29.792,29.792h-4.062V15.879
		l-7.826,13.913h-4.362V8.125h4.062v13.912L25.43,8.125h4.362V29.792z M51.458,56.875h-4.062v-6.771h-8.125v6.771h-4.062V35.208
		h4.062v10.834h8.125V35.208h4.062V56.875z M51.458,14.219h-4.062v-2.031h-8.125v6.771h8.624l-6.094,6.771h9.657v4.062H32.679
		l6.094-6.771h-3.564V8.125h16.25V14.219z"/>
</g>
</svg>
